<svg id="visual" viewBox="0 0 900 600" width="900" height="600" xmlns="http://www.w3.org/2000/svg" xmlns:xlink="http://www.w3.org/1999/xlink" version="1.1"><rect x="0" y="0" width="900" height="600" fill="#151515"></rect><g transform="translate(478.1199902934759 263.34910902857007)"><path d="M199.5 -216.6C250.7 -194.8 279 -124.5 320.4 -35C361.9 54.5 416.5 163.3 374.4 197.2C332.2 231.1 193.3 190.3 91.7 208.2C-9.8 226.2 -74 302.9 -117.1 297.7C-160.2 292.4 -182.3 205.2 -257.8 124.6C-333.2 43.9 -462.1 -30.1 -444.1 -68.9C-426.1 -107.8 -261.2 -111.3 -162.8 -124.8C-64.3 -138.3 -32.1 -161.6 21 -186.7C74.1 -211.7 148.3 -238.4 199.5 -216.6" fill="#e2ff00"></path></g></svg>