<svg id="visual" viewBox="0 0 900 600" width="900" height="600" xmlns="http://www.w3.org/2000/svg" xmlns:xlink="http://www.w3.org/1999/xlink" version="1.1"><rect x="0" y="0" width="900" height="600" fill="#151515"></rect><defs><linearGradient id="grad1_0" x1="33.3%" y1="100%" x2="100%" y2="0%"><stop offset="20%" stop-color="#e2ff00" stop-opacity="1"></stop><stop offset="80%" stop-color="#e2ff00" stop-opacity="1"></stop></linearGradient></defs><defs><linearGradient id="grad1_1" x1="33.3%" y1="100%" x2="100%" y2="0%"><stop offset="20%" stop-color="#e2ff00" stop-opacity="1"></stop><stop offset="80%" stop-color="#b5ca1d" stop-opacity="1"></stop></linearGradient></defs><defs><linearGradient id="grad1_2" x1="33.3%" y1="100%" x2="100%" y2="0%"><stop offset="20%" stop-color="#8a9823" stop-opacity="1"></stop><stop offset="80%" stop-color="#b5ca1d" stop-opacity="1"></stop></linearGradient></defs><defs><linearGradient id="grad1_3" x1="33.3%" y1="100%" x2="100%" y2="0%"><stop offset="20%" stop-color="#8a9823" stop-opacity="1"></stop><stop offset="80%" stop-color="#606823" stop-opacity="1"></stop></linearGradient></defs><defs><linearGradient id="grad1_4" x1="33.3%" y1="100%" x2="100%" y2="0%"><stop offset="20%" stop-color="#3a3c1e" stop-opacity="1"></stop><stop offset="80%" stop-color="#606823" stop-opacity="1"></stop></linearGradient></defs><defs><linearGradient id="grad1_5" x1="33.3%" y1="100%" x2="100%" y2="0%"><stop offset="20%" stop-color="#3a3c1e" stop-opacity="1"></stop><stop offset="80%" stop-color="#151515" stop-opacity="1"></stop></linearGradient></defs><defs><linearGradient id="grad2_0" x1="0%" y1="100%" x2="66.7%" y2="0%"><stop offset="20%" stop-color="#e2ff00" stop-opacity="1"></stop><stop offset="80%" stop-color="#e2ff00" stop-opacity="1"></stop></linearGradient></defs><defs><linearGradient id="grad2_1" x1="0%" y1="100%" x2="66.7%" y2="0%"><stop offset="20%" stop-color="#b5ca1d" stop-opacity="1"></stop><stop offset="80%" stop-color="#e2ff00" stop-opacity="1"></stop></linearGradient></defs><defs><linearGradient id="grad2_2" x1="0%" y1="100%" x2="66.7%" y2="0%"><stop offset="20%" stop-color="#b5ca1d" stop-opacity="1"></stop><stop offset="80%" stop-color="#8a9823" stop-opacity="1"></stop></linearGradient></defs><defs><linearGradient id="grad2_3" x1="0%" y1="100%" x2="66.7%" y2="0%"><stop offset="20%" stop-color="#606823" stop-opacity="1"></stop><stop offset="80%" stop-color="#8a9823" stop-opacity="1"></stop></linearGradient></defs><defs><linearGradient id="grad2_4" x1="0%" y1="100%" x2="66.7%" y2="0%"><stop offset="20%" stop-color="#606823" stop-opacity="1"></stop><stop offset="80%" stop-color="#3a3c1e" stop-opacity="1"></stop></linearGradient></defs><defs><linearGradient id="grad2_5" x1="0%" y1="100%" x2="66.7%" y2="0%"><stop offset="20%" stop-color="#151515" stop-opacity="1"></stop><stop offset="80%" stop-color="#3a3c1e" stop-opacity="1"></stop></linearGradient></defs><g transform="translate(900, 600)"><path d="M-486.7 0C-442.3 -48.2 -397.9 -96.4 -380.6 -157.7C-363.4 -218.9 -373.2 -293.2 -344.2 -344.2C-315.1 -395.1 -247.2 -422.7 -183.3 -442.5C-119.5 -462.4 -59.7 -474.6 0 -486.7L0 0Z" fill="#27281a"></path><path d="M-405.6 0C-368.6 -40.2 -331.6 -80.3 -317.2 -131.4C-302.8 -182.4 -311 -244.4 -286.8 -286.8C-262.6 -329.3 -206 -352.2 -152.8 -368.8C-99.5 -385.3 -49.8 -395.5 0 -405.6L0 0Z" fill="#4d5221"></path><path d="M-324.5 0C-294.9 -32.1 -265.3 -64.3 -253.8 -105.1C-242.2 -146 -248.8 -195.5 -229.5 -229.5C-210.1 -263.4 -164.8 -281.8 -122.2 -295C-79.6 -308.3 -39.8 -316.4 0 -324.5L0 0Z" fill="#757f24"></path><path d="M-243.4 0C-221.2 -24.1 -199 -48.2 -190.3 -78.8C-181.7 -109.5 -186.6 -146.6 -172.1 -172.1C-157.6 -197.6 -123.6 -211.3 -91.7 -221.3C-59.7 -231.2 -29.9 -237.3 0 -243.4L0 0Z" fill="#9fb121"></path><path d="M-162.2 0C-147.4 -16.1 -132.6 -32.1 -126.9 -52.6C-121.1 -73 -124.4 -97.7 -114.7 -114.7C-105 -131.7 -82.4 -140.9 -61.1 -147.5C-39.8 -154.1 -19.9 -158.2 0 -162.2L0 0Z" fill="#cbe414"></path><path d="M-81.1 0C-73.7 -8 -66.3 -16.1 -63.4 -26.3C-60.6 -36.5 -62.2 -48.9 -57.4 -57.4C-52.5 -65.9 -41.2 -70.4 -30.6 -73.8C-19.9 -77.1 -10 -79.1 0 -81.1L0 0Z" fill="#e2ff00"></path></g><g transform="translate(0, 0)"><path d="M486.7 0C445.7 47.4 404.6 94.7 389 161.1C373.3 227.5 383.1 312.8 344.2 344.2C305.3 375.6 217.8 352.9 152.3 367.7C86.8 382.5 43.4 434.6 0 486.7L0 0Z" fill="#27281a"></path><path d="M405.6 0C371.4 39.5 337.2 79 324.1 134.3C311.1 189.6 319.2 260.7 286.8 286.8C254.4 313 181.5 294.1 126.9 306.4C72.4 318.7 36.2 362.2 0 405.6L0 0Z" fill="#4d5221"></path><path d="M324.5 0C297.1 31.6 269.7 63.2 259.3 107.4C248.9 151.6 255.4 208.5 229.5 229.5C203.5 250.4 145.2 235.3 101.5 245.1C57.9 255 28.9 289.7 0 324.5L0 0Z" fill="#757f24"></path><path d="M243.4 0C222.8 23.7 202.3 47.4 194.5 80.6C186.6 113.7 191.5 156.4 172.1 172.1C152.7 187.8 108.9 176.5 76.2 183.9C43.4 191.2 21.7 217.3 0 243.4L0 0Z" fill="#9fb121"></path><path d="M162.2 0C148.6 15.8 134.9 31.6 129.7 53.7C124.4 75.8 127.7 104.3 114.7 114.7C101.8 125.2 72.6 117.6 50.8 122.6C28.9 127.5 14.5 144.9 0 162.2L0 0Z" fill="#cbe414"></path><path d="M81.1 0C74.3 7.9 67.4 15.8 64.8 26.9C62.2 37.9 63.8 52.1 57.4 57.4C50.9 62.6 36.3 58.8 25.4 61.3C14.5 63.7 7.2 72.4 0 81.1L0 0Z" fill="#e2ff00"></path></g></svg>