<svg id="visual" viewBox="0 0 900 600" width="900" height="600" xmlns="http://www.w3.org/2000/svg" xmlns:xlink="http://www.w3.org/1999/xlink" version="1.1"><path d="M0 181L90 163L180 193L270 109L360 151L450 109L540 145L630 199L720 115L810 157L900 121L900 0L810 0L720 0L630 0L540 0L450 0L360 0L270 0L180 0L90 0L0 0Z" fill="#e2ff00"></path><path d="M0 223L90 229L180 259L270 187L360 229L450 187L540 199L630 259L720 187L810 193L900 157L900 119L810 155L720 113L630 197L540 143L450 107L360 149L270 107L180 191L90 161L0 179Z" fill="#b5ca1d"></path><path d="M0 265L90 295L180 319L270 235L360 289L450 235L540 271L630 325L720 259L810 241L900 235L900 155L810 191L720 185L630 257L540 197L450 185L360 227L270 185L180 257L90 227L0 221Z" fill="#8a9724"></path><path d="M0 361L90 361L180 415L270 301L360 385L450 325L540 325L630 367L720 337L810 319L900 319L900 233L810 239L720 257L630 323L540 269L450 233L360 287L270 233L180 317L90 293L0 263Z" fill="#616823"></path><path d="M0 475L90 463L180 517L270 421L360 499L450 391L540 427L630 433L720 421L810 409L900 397L900 317L810 317L720 335L630 365L540 323L450 323L360 383L270 299L180 413L90 359L0 359Z" fill="#3a3c1e"></path><path d="M0 601L90 601L180 601L270 601L360 601L450 601L540 601L630 601L720 601L810 601L900 601L900 395L810 407L720 419L630 431L540 425L450 389L360 497L270 419L180 515L90 461L0 473Z" fill="#151515"></path></svg>