<svg id="visual" viewBox="0 0 900 600" width="900" height="600" xmlns="http://www.w3.org/2000/svg" xmlns:xlink="http://www.w3.org/1999/xlink" version="1.1"><path d="M0 193L90 163L180 157L270 217L360 199L450 217L540 175L630 121L720 205L810 199L900 163L900 0L810 0L720 0L630 0L540 0L450 0L360 0L270 0L180 0L90 0L0 0Z" fill="#151515"></path><path d="M0 313L90 271L180 235L270 331L360 301L450 319L540 271L630 217L720 331L810 295L900 277L900 161L810 197L720 203L630 119L540 173L450 215L360 197L270 215L180 155L90 161L0 191Z" fill="#43471f"></path><path d="M0 427L90 433L180 451L270 457L360 475L450 445L540 433L630 451L720 451L810 433L900 427L900 275L810 293L720 329L630 215L540 269L450 317L360 299L270 329L180 233L90 269L0 311Z" fill="#757f24"></path><path d="M0 523L90 511L180 511L270 547L360 535L450 553L540 523L630 517L720 523L810 535L900 535L900 425L810 431L720 449L630 449L540 431L450 443L360 473L270 455L180 449L90 431L0 425Z" fill="#aabd20"></path><path d="M0 601L90 601L180 601L270 601L360 601L450 601L540 601L630 601L720 601L810 601L900 601L900 533L810 533L720 521L630 515L540 521L450 551L360 533L270 545L180 509L90 509L0 521Z" fill="#e2ff00"></path></svg>