<svg id="visual" viewBox="0 0 900 600" width="900" height="600" xmlns="http://www.w3.org/2000/svg" xmlns:xlink="http://www.w3.org/1999/xlink" version="1.1"><path d="M0 480L15 470.5C30 461 60 442 90 426.3C120 410.7 150 398.3 180 401.3C210 404.3 240 422.7 270 437.8C300 453 330 465 360 464C390 463 420 449 450 456.7C480 464.3 510 493.7 540 507.7C570 521.7 600 520.3 630 520C660 519.7 690 520.3 720 520.2C750 520 780 519 810 507.8C840 496.7 870 475.3 885 464.7L900 454L900 601L885 601C870 601 840 601 810 601C780 601 750 601 720 601C690 601 660 601 630 601C600 601 570 601 540 601C510 601 480 601 450 601C420 601 390 601 360 601C330 601 300 601 270 601C240 601 210 601 180 601C150 601 120 601 90 601C60 601 30 601 15 601L0 601Z" fill="#151515" stroke-linecap="round" stroke-linejoin="miter"></path></svg>