<svg id="visual" viewBox="0 0 900 600" width="900" height="600" xmlns="http://www.w3.org/2000/svg" xmlns:xlink="http://www.w3.org/1999/xlink" version="1.1"><rect x="0" y="0" width="900" height="600" fill="#ffffff"></rect><path d="M0 298L150 298L150 318L300 318L300 280L450 280L450 333L600 333L600 289L750 289L750 348L900 348L900 299L900 0L900 0L750 0L750 0L600 0L600 0L450 0L450 0L300 0L300 0L150 0L150 0L0 0Z" fill="#04079e"></path><path d="M0 253L150 253L150 197L300 197L300 238L450 238L450 198L600 198L600 232L750 232L750 272L900 272L900 222L900 0L900 0L750 0L750 0L600 0L600 0L450 0L450 0L300 0L300 0L150 0L150 0L0 0Z" fill="#1e0771"></path><path d="M0 144L150 144L150 150L300 150L300 147L450 147L450 157L600 157L600 186L750 186L750 187L900 187L900 165L900 0L900 0L750 0L750 0L600 0L600 0L450 0L450 0L300 0L300 0L150 0L150 0L0 0Z" fill="#1d0748"></path><path d="M0 104L150 104L150 86L300 86L300 62L450 62L450 98L600 98L600 63L750 63L750 68L900 68L900 77L900 0L900 0L750 0L750 0L600 0L600 0L450 0L450 0L300 0L300 0L150 0L150 0L0 0Z" fill="#160024"></path></svg>