<svg id="visual" viewBox="0 0 960 540" width="960" height="540" xmlns="http://www.w3.org/2000/svg" xmlns:xlink="http://www.w3.org/1999/xlink" version="1.1"><rect x="0" y="0" width="960" height="540" fill="#FFFFFF"></rect><path d="M0 138L22.8 146.7C45.7 155.3 91.3 172.7 137 174.3C182.7 176 228.3 162 274 143.7C319.7 125.3 365.3 102.7 411.2 95.5C457 88.3 503 96.7 548.8 102.5C594.7 108.3 640.3 111.7 686 111.8C731.7 112 777.3 109 823 119.5C868.7 130 914.3 154 937.2 166L960 178L960 0L937.2 0C914.3 0 868.7 0 823 0C777.3 0 731.7 0 686 0C640.3 0 594.7 0 548.8 0C503 0 457 0 411.2 0C365.3 0 319.7 0 274 0C228.3 0 182.7 0 137 0C91.3 0 45.7 0 22.8 0L0 0Z" fill="#151515" stroke-linecap="round" stroke-linejoin="miter"></path></svg>